<?xml version="1.0" standalone="no"?>
<!DOCTYPE svg PUBLIC "-//W3C//DTD SVG 20010904//EN"
 "http://www.w3.org/TR/2001/REC-SVG-20010904/DTD/svg10.dtd">
<svg version="1.0" xmlns="http://www.w3.org/2000/svg"
 width="700.000000pt" height="700.000000pt" viewBox="0 0 700.000000 700.000000"
 preserveAspectRatio="xMidYMid meet">
<metadata>
Created by potrace 1.11, written by Peter Selinger 2001-2013
</metadata>
<g transform="translate(0.000000,700.000000) scale(0.100000,-0.100000)"
fill="#000000" stroke="none">
<path d="M2505 6989 c-272 -48 -488 -174 -656 -385 -27 -34 -49 -66 -49 -72 0
-6 -3 -12 -8 -14 -11 -5 -68 -116 -91 -178 -27 -74 -48 -155 -57 -215 -4 -27
-8 -737 -9 -1576 l-1 -1526 -59 -50 c-245 -206 -433 -488 -526 -790 -24 -75
-24 -75 -43 -163 -37 -165 -42 -476 -11 -628 33 -162 86 -327 137 -424 33 -63
67 -84 121 -76 30 5 34 2 68 -52 32 -50 35 -60 23 -72 -8 -8 -18 -28 -23 -45
-14 -48 15 -96 125 -209 284 -289 604 -448 1014 -503 84 -11 344 -6 439 8 621
95 1144 531 1345 1121 47 140 70 249 82 395 37 433 -74 812 -345 1179 -46 62
-198 218 -269 276 l-42 35 -1 1535 c0 1488 0 1538 -19 1624 -55 251 -182 452
-380 604 -30 23 -60 46 -66 51 -6 5 -53 30 -105 55 -83 40 -182 73 -274 91
-51 10 -267 13 -320 4z"/>
<path d="M4522 6528 c-22 -11 -65 -93 -158 -302 l-39 -89 -90 -42 c-164 -78
-246 -115 -253 -115 -4 0 -19 -11 -34 -25 -50 -46 -47 -71 32 -282 l71 -190
-66 -178 c-77 -203 -82 -223 -61 -263 19 -37 36 -47 171 -107 61 -27 137 -62
169 -79 l60 -31 76 -165 c94 -206 95 -207 128 -223 41 -21 87 -12 207 38 17 7
76 30 133 50 l104 38 181 -68 c100 -38 197 -69 214 -69 60 0 82 28 172 227 47
103 89 187 93 187 7 0 54 21 198 87 41 20 94 43 116 53 57 25 88 70 80 118 -3
20 -35 115 -71 210 l-65 173 66 177 c76 204 82 228 61 268 -16 30 -38 44 -177
107 -41 18 -107 48 -147 67 l-71 33 -63 136 c-34 75 -73 160 -87 189 -26 55
-60 82 -106 82 -20 0 -211 -65 -321 -109 -11 -5 -32 -13 -46 -19 -21 -8 -55 1
-213 59 -190 70 -222 77 -264 57z"/>
</g>
</svg>
